<svg xmlns="http://www.w3.org/2000/svg" viewBox="0 0 24 24" fill="none">
  <path d="M17.5 2L20 4.5 17.5 7 15 4.5 17.5 2z" fill="#007ACC"/>
  <path d="M15 4.5L8.5 11 6 8.5 12.5 2 15 4.5z" fill="#1F9CF0"/>
  <path d="M8.5 11L6 13.5 3.5 11 6 8.5 8.5 11z" fill="#007ACC"/>
  <path d="M6 13.5L8.5 16 11 13.5 8.5 11 6 13.5z" fill="#1F9CF0"/>
  <path d="M8.5 16L11 18.5 13.5 16 11 13.5 8.5 16z" fill="#007ACC"/>
  <path d="M11 18.5L13.5 21 16 18.5 13.5 16 11 18.5z" fill="#1F9CF0"/>
  <path d="M13.5 16L16 13.5 18.5 16 16 18.5 13.5 16z" fill="#007ACC"/>
  <path d="M16 13.5L18.5 11 21 13.5 18.5 16 16 13.5z" fill="#1F9CF0"/>
</svg>
